<svg width="82" height="129" viewBox="0 0 82 129" fill="none" xmlns="http://www.w3.org/2000/svg">
<path d="M58.1196 84.7484C58.5662 108.492 31.882 124.143 18.4841 129L82.0001 129L82.0001 -2.53424e-06L44.9698 -1.05676e-06C41.8271 3.78448 35.5912 14.1158 35.7897 25.1653C36.0378 38.9771 57.5613 55.0686 58.1196 84.7484Z" fill="#FFC700"/>
<path opacity="0.5" d="M54.1084 84.7484C54.63 108.492 23.4637 124.143 7.81543 129L82 129L82 -2.95992e-06L38.7498 -1.23426e-06C35.0792 3.78448 27.796 14.1158 28.0278 25.1653C28.3176 38.9771 53.4563 55.0686 54.1084 84.7484Z" fill="#FFC700"/>
<path opacity="0.5" d="M51.17 84.7484C51.7465 108.492 17.2969 124.143 0 129L82.0001 129L82 -3.27175e-06L34.1934 -1.36429e-06C30.1361 3.78448 22.0856 14.1158 22.3418 25.1653C22.6621 38.9771 50.4492 55.0686 51.17 84.7484Z" fill="#FFC700"/>
</svg>
